Coordinates
version=1
nRows=12
nColumns=42
inDegrees=yes
Units are S.I. units (second, meters, Newtons, ...)
If the header above contains a line with 'inDegrees', this indicates whether rotational values are in degrees (yes) or radians (no).
endheader
time	pelvis_tilt	pelvis_list	pelvis_rotation	pelvis_tx	pelvis_ty	pelvis_tz	hip_flexion_r	hip_adduction_r	hip_rotation_r	knee_angle_r	knee_adduction_r	knee_angle_r_beta	ankle_angle_r	subtalar_angle_r	mtp_angle_r	hip_flexion_l	hip_adduction_l	hip_rotation_l	knee_angle_l	knee_adduction_l	knee_angle_l_beta	ankle_angle_l	subtalar_angle_l	mtp_angle_l	lumbar_extension	lumbar_bending	lumbar_rotation	arm_flex_r	arm_add_r	arm_rot_r	elbow_flex_r	pro_sup_r	wrist_flex_r	wrist_dev_r	arm_flex_l	arm_add_l	arm_rot_l	elbow_flex_l	pro_sup_l	wrist_flex_l	wrist_dev_l
    0.77500000000000	    3.66908225774480	   -4.44539893972135	   -8.88354913867535	    0.23446723903144	    0.94821670057608	    0.29540134391004	   36.58260156401275	   -5.55781067282620	    7.51303651572986	   72.37126061616597	    5.85288448000000	    1.26311678056898	  -16.80658337313962	   -4.64318544151736	    0.00000000000000	   22.92588915397346	   -8.38230418356864	  -20.37838271428790	   28.78720190946335	    4.70865390000000	    0.50243145622062	   -0.58265537265032	   -6.22984210785849	  -10.00000000000000	  -38.30451620696603	   10.91616401796730	    4.59778508705019	   -8.79438819678213	   -4.21828805426229	  -25.20752179942523	   53.55754586049851	   90.00000000999999	    0.00000000000000	    0.00000000000000	  -28.27266164744308	  -34.39863375672947	  -27.33882618594418	   55.66252807046548	   90.00000000999999	    0.00000000000000	    0.00000000000000	
    0.78000000000000	    4.23101130151071	   -4.41370140465555	   -9.08934084131064	    0.23492760888030	    0.95296873048667	    0.29397716105348	   37.99431918456693	   -5.24384611297605	    6.02251299611229	   68.32884786111002	    5.85288448000000	    1.19256336813413	  -17.61334645205361	   -4.12214031138178	    0.00000000000000	   21.42783831736722	   -8.14798369642973	  -21.22259182633159	   27.27357506148608	    4.70865390000000	    0.47601368412615	   -1.44249233899641	   -5.30492805964425	  -10.00000000000000	  -39.92423768004500	   11.09618930383315	    4.79604523002099	   -8.52307674529829	   -4.02626102596634	  -24.96818496983374	   53.07447126755530	   90.00000000999999	    0.00000000000000	    0.00000000000000	  -26.07484743696192	  -34.79727464340903	  -26.13351726155678	   57.92345263861759	   90.00000000999999	    0.00000000000000	    0.00000000000000	
    0.78500000000000	    4.69711158010370	   -4.35094647173736	   -9.29359363346457	    0.23533370310011	    0.95759421663998	    0.29259688404493	   39.37969861196306	   -4.92581966870214	    4.46970496179374	   64.15545359918157	    5.85288448000000	    1.11972389714699	  -18.46203203845508	   -3.53543006427575	    0.00000000000000	   20.04564117170325	   -7.90003949643312	  -22.07384934616097	   25.75716984248884	    4.70865390000000	    0.44954742031893	   -2.37729632249318	   -4.35747363989932	  -10.00000000000000	  -41.43015136874010	   11.24751304495194	    5.02777004492874	   -8.27477852905639	   -3.83062077195046	  -24.76341943765861	   52.63154764923902	   90.00000000999999	    0.00000000000000	    0.00000000000000	  -23.85017936967583	  -35.17970743668701	  -24.94165084586067	   60.24126808430375	   90.00000000999999	    0.00000000000000	    0.00000000000000	
    0.79000000000000	    5.06463383575628	   -4.25750540749230	   -9.49461858908069	    0.23571028525849	    0.96205411484756	    0.29126365899190	   40.74758952921720	   -4.60321190502301	    2.86328282947189	   59.89461246882506	    5.85288448000000	    1.04535819038914	  -19.34266447458335	   -2.89332961880928	    0.00000000000000	   18.79085224635659	   -7.63961239357164	  -22.92143730879195	   24.25594509184331	    4.70865390000000	    0.42334610567495	   -3.37738002622827	   -3.39873531300586	  -10.00000000000000	  -42.81378770045576	   11.36951986658648	    5.29228901363807	   -8.05399870414957	   -3.63143195657334	  -24.59464723502960	   52.22814464743911	   90.00000000999999	    0.00000000000000	    0.00000000000000	  -21.60236058397494	  -35.54050367219994	  -23.76729792133382	   62.60637132516134	   90.00000000999999	    0.00000000000000	    0.00000000000000	
    0.79500000000000	    5.33301211695685	   -4.13457255174736	   -9.69091321562415	    0.23608118944564	    0.96631407154258	    0.28998021832976	   42.10718096099926	   -4.27566339924565	    1.21308162756527	   55.59134885879624	    5.85288448000000	    0.97025207169018	  -20.24477020597602	   -2.20691476734538	    0.00000000000000	   17.67191027417194	   -7.36833366483115	  -23.75500213261133	   22.78687825675340	    4.70865390000000	    0.39770605254544	   -4.43126800461839	   -2.43973655275402	  -10.00000000000000	  -44.06956813141903	   11.46222604627127	    5.58872747025764	   -7.86455884857735	   -3.42917684225667	  -24.46215403287953	   51.86348645253636	   90.00000000999999	    0.00000000000000	    0.00000000000000	  -19.33547333209825	  -35.87401430887338	  -22.61401234821321	   65.00877718339801	   90.00000000999999	    0.00000000000000	    0.00000000000000	
    0.80000000000000	    5.50389920403467	   -3.98412877803804	   -9.88114744067899	    0.23646905505861	    0.97034485243876	    0.28874888434595	   43.46759802253926	   -3.94301794074297	   -0.46987056207805	   51.29141885557852	    5.85288448000000	    0.89520413541416	  -21.15774061037225	   -1.48788038232112	    0.00000000000000	   16.69400196135592	   -7.08827638895944	  -24.56471911200752	   21.36575338200277	    4.70865390000000	    0.37290274448000	   -5.52599432917182	   -1.49116847102690	  -10.00000000000000	  -45.19485349833320	   11.52624978333218	    5.91601877192648	   -7.70955697754374	   -3.22474118894616	  -24.36511100371272	   51.53666827394298	   90.00000000999999	    0.00000000000000	    0.00000000000000	  -17.05401245286137	  -36.17456282152421	  -21.48478432141205	   67.43822125498880	   90.00000000999999	    0.00000000000000	    0.00000000000000	
    0.80500000000000	    5.58114274274204	   -3.80888457890270	  -10.06414363364259	    0.23689508979764	    0.97412264117248	    0.28757157817737	   44.83751004295046	   -3.60536273264944	   -2.17336164883017	   47.04055699477853	    5.85288448000000	    0.82101259979135	  -22.07116762759996	   -0.74835554304676	    0.00000000000000	   15.85901316156792	   -6.80189388285103	  -25.34144456679136	   20.00698057333172	    4.70865390000000	    0.34918768526809	   -6.64743236153770	   -0.56329160464292	  -10.00000000000000	  -46.18991003189267	   11.56277234323849	    6.27291738828664	   -7.59134660773674	   -3.01938787756349	  -24.30163312321206	   51.24666992082808	   90.00000000999999	    0.00000000000000	    0.00000000000000	  -14.76289728062482	  -36.43664293974744	  -20.38200240335251	   69.88425803815873	   90.00000000999999	    0.00000000000000	    0.00000000000000	
    0.81000000000000	    5.57070244011998	   -3.61220518323194	  -10.23885108054198	    0.23737886473874	    0.97762920346013	    0.28644983291187	   46.22476433076739	   -3.26306341397538	   -3.88404980357914	   42.88374281326612	    5.85288448000000	    0.74846250583810	  -22.97512941969413	   -0.00071505610460	    0.00000000000000	   15.16556848661351	   -6.51194839305698	  -26.07685076600514	   18.72345016694112	    4.70865390000000	    0.32678585371678	   -7.78064563633560	    0.33416111497925	  -10.00000000000000	  -47.05779527143336	   11.57349261758495	    6.65801235131798	   -7.51153488352464	   -2.81471809891727	  -24.26887358416223	   50.99236771203071	   90.00000000999999	    0.00000000000000	    0.00000000000000	  -12.46746065865155	  -36.65511318179688	  -19.30742543589281	   72.33635389666063	   90.00000000999999	    0.00000000000000	    0.00000000000000	
    0.81500000000000	    5.48051051556496	   -3.39802014531810	  -10.40431573141501	    0.23793814465748	    0.98085191644979	    0.28538480946270	   47.63605921496041	   -2.91679229543858	   -5.58756938530985	   38.86450095317929	    5.85288448000000	    0.67831350186727	  -23.86041313488389	    0.74261214680864	    0.00000000000000	   14.60915733984868	   -6.22143295805441	  -26.76353936562153	   17.52642338336947	    4.70865390000000	    0.30589379520087	   -8.91024885186110	    1.19208000386963	  -10.00000000000000	  -47.80416870026069	   11.56057696494396	    7.06974011941814	   -7.47099892571551	   -2.61262040273237	  -24.26315220510221	   50.77254587930743	   90.00000000999999	    0.00000000000000	    0.00000000000000	  -10.17341578312392	  -36.82538048522337	  -18.26216642902613	   74.78397547133848	   90.00000000999999	    0.00000000000000	    0.00000000000000	
    0.82000000000000	    5.32027936388194	   -3.17071980718605	  -10.55964649858987	    0.23858875609686	    0.98378366716944	    0.28437731416232	   49.07666862389855	   -2.56754885384836	   -7.26869297248910	   35.02424733537278	    5.85288448000000	    0.61128843206209	  -24.71867278368835	    1.46933643864717	    0.00000000000000	   14.18234134864903	   -5.93348897611594	  -27.39512997718595	   16.42545965740806	    4.70865390000000	    0.28667835333067	  -10.02076840212711	    2.00207234386845	  -10.00000000000000	  -48.43703427778966	   11.52660543773410	    7.50639548316785	   -7.46991861471520	   -2.41520846387720	  -24.28011375361877	   50.58590823426790	   90.00000000999999	    0.00000000000000	    0.00000000000000	   -7.88680377906562	  -36.94356580731543	  -17.24669117944995	   77.21667495894089	   90.00000000999999	    0.00000000000000	    0.00000000000000	
    0.82500000000000	    5.10126194476058	   -2.93504107079530	  -10.70397981342308	    0.23934449476531	    0.98642262796593	    0.28342781742779	   50.55022829854158	   -2.21667196701769	   -8.91155098763574	   31.40169244646580	    5.85288448000000	    0.54806292187041	  -25.54252789404467	    2.16750178696975	    0.00000000000000	   13.87503546417774	   -5.65132169644036	  -27.96632154996597	   15.42837933245539	    4.70865390000000	    0.26927601884566	  -11.09699259535458	    2.75655330321026	  -10.00000000000000	  -48.96642406627549	   11.47451485756185	    7.96613884581391	   -7.50782309889311	   -2.22474906460557	  -24.31491015878266	   50.43109026424926	   90.00000000999999	    0.00000000000000	    0.00000000000000	   -5.61392688680865	  -37.00664553861719	  -16.26083474597187	   79.62417419184425	   90.00000000999999	    0.00000000000000	    0.00000000000000	
    0.83000000000000	    4.83597166539890	   -2.69594511685887	  -10.83644447253010	    0.24021707266622	    0.98877192032341	    0.28253647323304	   52.05859092809052	   -1.86584341549100	  -10.49990653281501	   28.03231090033998	    5.85288448000000	    0.48925612010629	  -26.32561201794736	    2.82568062675536	    0.00000000000000	   13.67485280062066	   -5.37811574154715	  -28.47292543451384	   14.54125918671986	    4.70865390000000	    0.25379285153200	  -12.12430256405379	    3.44883295015114	  -10.00000000000000	  -49.40403374206048	   11.40753883985150	    8.44699825333736	   -7.58364763151668	   -2.04358246600132	  -24.36239891477201	   50.30667125618313	   90.00000000999999	    0.00000000000000	    0.00000000000000	   -3.36127351830209	  -37.01256389815871	  -15.30383871056836	   81.99644957272639	   90.00000000999999	    0.00000000000000	    0.00000000000000	
